<?xml version="1.0" encoding="UTF-8"?>
<svg width="26px" height="26px" viewBox="0 0 26 26" version="1.1" xmlns="http://www.w3.org/2000/svg" xmlns:xlink="http://www.w3.org/1999/xlink">
    <!-- Generator: Sketch 43.1 (39012) - http://www.bohemiancoding.com/sketch -->
    <title>enhancement</title>
    <desc>Created with Sketch.</desc>
    <defs></defs>
    <g id="main" stroke="none" stroke-width="1" fill="none" fill-rule="evenodd">
        <g id="Desktop-HD" transform="translate(-1222.000000, -369.000000)" fill-rule="nonzero" fill="#FFFFFF">
            <g id="enhancement" transform="translate(1222.000000, 368.000000)">
                <path d="M23.864578,6.66609871 L24.2881956,5.03939284 L21.8819013,2.63309854 L18.6284307,3.48021596 L17.7811954,6.73368661 L20.1876076,9.13998092 L23.4409604,8.29280457 L23.864578,6.66609871 L24.2881956,5.03939284 L23.1327784,3.88397559 L19.0148072,7.9672984 L20.1876076,9.13998092 L23.4409604,8.29280457 L23.864578,6.66609871 Z" id="Combined-Shape"></path>
                <path d="M19.6676279,13.0723216 L13.8532834,7.25797705 L19.5253875,1.58587295 C16.8413291,0.894675586 13.8722915,1.59811787 11.7705076,3.69997295 C9.65085469,5.81962588 8.95389082,8.82126914 9.67491738,11.5231254 L0.0669963867,21.1311888 C1.51652461,23.4466893 3.47108467,25.4131383 5.77740146,26.8759081 L15.4025508,17.2507588 C18.1045494,17.9717854 21.1060503,17.2746791 23.2257744,15.1550974 C25.3274871,13.0533847 26.0309294,10.0843471 25.3398744,7.40021748 L19.6676279,13.0723216 Z" id="Shape"></path>
                <path d="M25.339732,7.40021748 L19.6676279,13.0723216 L16.7924918,10.1971854 L2.57442891,24.2959315 C3.53942842,25.2708979 4.61356436,26.1377244 5.77733027,26.8759081 L15.4025508,17.2507588 C18.1045494,17.9717854 21.1060503,17.2746791 23.2257744,15.1550974 C25.3274871,13.0532423 26.0309294,10.0842759 25.339732,7.40021748 Z" id="Shape"></path>
                <path d="M1.94267637,23.6255221 C2.39317559,24.1288453 2.87122588,24.6068244 3.37454912,25.0573948 L13.1736902,15.2582537 C13.5690873,14.8628566 13.5690873,14.2218492 13.1736902,13.826381 L13.1736902,13.826381 C12.7782932,13.4309839 12.1372857,13.4309839 11.7418175,13.826381 L1.94267637,23.6255221 Z" id="Shape"></path>
                <path d="M11.7944059,15.1533161 L2.57478486,24.2954332 C2.83385039,24.5570616 3.10003506,24.8117133 3.37447793,25.0573236 L13.173619,15.2581825 C13.5690161,14.8627854 13.5690161,14.2216356 13.173619,13.8263098 C13.1667847,13.8194754 12.2470008,14.704526 11.7944059,15.1533161 Z" id="Shape"></path>
            </g>
        </g>
    </g>
</svg>