<?xml version="1.0" encoding="UTF-8"?>
<svg width="35px" height="35px" viewBox="0 0 35 35" version="1.1" xmlns="http://www.w3.org/2000/svg" xmlns:xlink="http://www.w3.org/1999/xlink">
    <!-- Generator: Sketch 43.1 (39012) - http://www.bohemiancoding.com/sketch -->
    <title>man</title>
    <desc>Created with Sketch.</desc>
    <defs></defs>
    <g id="main" stroke="none" stroke-width="1" fill="none" fill-rule="evenodd">
        <g id="navbars" transform="translate(-1213.000000, -28.000000)" fill-rule="nonzero">
            <g id="nav-purple-big">
                <g id="man" transform="translate(1213.000000, 28.000000)">
                    <circle id="Oval" fill="#90DFAA" cx="17.5" cy="17.5" r="17.5"></circle>
                    <g id="Group" transform="translate(3.307087, 23.011811)" fill="#E6E9EE">
                        <path d="M14.9301181,2.01181102 C14.8207431,2.01181102 14.7113681,2.36181102 14.4926181,2.36181102 C14.3832431,2.36181102 14.2738681,2.01181102 14.0551181,2.01181102 L14.9301181,2.01181102 Z" id="Shape"></path>
                        <path d="M28.2755906,4.82283465 C25.1062992,9.1496063 19.9527559,11.988189 14.1653543,11.988189 C8.37795276,11.988189 3.2519685,9.17716535 0.0551181102,4.82283465 C2.53543307,2.17716535 5.8976378,0.771653543 8.70866142,0.0551181102 C8.46062992,2.06692913 9.50787402,4.76771654 9.53543307,4.68503937 C10.5826772,2.25984252 14.1377953,2.03937008 14.1377953,2.03937008 C14.1377953,2.03937008 17.6929134,2.23228346 18.7677165,4.68503937 C18.7952756,4.74015748 19.8425197,2.06692913 19.5944882,0.0551181102 C22.4330709,0.771653543 25.7952756,2.17716535 28.2755906,4.82283465 Z" id="Shape"></path>
                    </g>
                    <path d="M21.8267717,21.2204724 L21.8267717,21.2204724 C21.8267717,21.5787402 21.6062992,23.480315 17.5826772,25.023622 L17.3622047,25.023622 C13.3385827,23.480315 13.1181102,21.5787402 13.1181102,21.2204724 L13.1181102,21.2204724 C13.1456693,20.503937 13.3110236,19.7874016 13.6141732,19.1259843 C14.7165354,20.3661417 16.0393701,21.1929134 17.4724409,21.1929134 C18.8779528,21.1929134 20.2283465,20.3937008 21.3307087,19.1259843 C21.6338583,19.7874016 21.8267717,20.503937 21.8267717,21.2204724 Z" id="Shape" fill="#FFD05B"></path>
                    <path d="M19.8700787,25.6574803 L18.988189,27.4212598 L15.9566929,27.4212598 L15.0748031,25.6574803 C16.2874016,25.1338583 17.4724409,25.0511811 17.4724409,25.0511811 C17.4724409,25.0511811 18.6850394,25.1338583 19.8700787,25.6574803 Z" id="Shape" fill="#F1543F"></path>
                    <path d="M15.019685,34.8346457 C15.8188976,34.9448819 16.6456693,35 17.5,35 C18.3267717,35 19.1535433,34.9448819 19.980315,34.8346457 L19.015748,27.4488189 L15.984252,27.4488189 L15.019685,34.8346457 Z" id="Shape" fill="#FF7058"></path>
                    <g id="Group" transform="translate(11.988189, 21.151575)" fill="#FFFFFF">
                        <path d="M9.83858268,0.0137795276 C9.83858268,0.0137795276 10.0314961,2.21850394 5.48425197,3.8996063 C5.48425197,3.8996063 9.03937008,4.09251969 10.1141732,6.54527559 C10.1417323,6.65551181 12.2086614,1.30905512 9.83858268,0.0137795276 Z" id="Shape"></path>
                        <path d="M1.12992126,0.0137795276 C-1.21259843,1.30905512 0.826771654,6.62795276 0.881889764,6.54527559 C1.92913386,4.12007874 5.51181102,3.8996063 5.51181102,3.8996063 C0.937007874,2.21850394 1.12992126,0.0137795276 1.12992126,0.0137795276 Z" id="Shape"></path>
                    </g>
                    <path d="M21.5511811,19.6771654 C20.3937008,20.9173228 19.015748,21.7165354 17.4724409,21.7165354 C15.9291339,21.7165354 14.5511811,20.9173228 13.3937008,19.6771654 C13.4488189,19.484252 13.5314961,19.2913386 13.6141732,19.1259843 C14.7165354,20.3661417 16.0393701,21.1929134 17.4724409,21.1929134 C18.9055118,21.1929134 20.2283465,20.3937008 21.3307087,19.1259843 C21.4133858,19.2913386 21.496063,19.484252 21.5511811,19.6771654 Z" id="Shape" fill="#F9B54C"></path>
                    <path d="M24.996063,15.4606299 C24.4173228,16.4251969 23.5354331,17.003937 22.8740157,16.8937008 C21.5511811,19.3464567 19.6220472,21.1653543 17.4724409,21.1653543 C15.3228346,21.1653543 13.3937008,19.3188976 12.0708661,16.8937008 C11.4094488,16.976378 10.5275591,16.4251969 9.9488189,15.4606299 C9.25984252,14.3307087 9.23228346,13.0905512 9.89370079,12.6771654 C10.0590551,12.5944882 10.2244094,12.5393701 10.4173228,12.5669291 C10.8582677,13.6968504 11.4645669,14.3858268 11.4645669,14.3858268 C10.8307087,10.8858268 13.4212598,10.5 12.980315,7.13779528 C12.980315,7.13779528 14.6062992,10.7480315 19.2637795,8.21259843 L18.9055118,8.9015748 C25.4094488,7.44094488 23.2322835,15.1023622 23.1771654,15.2952756 C23.9212598,14.3582677 24.3897638,13.4212598 24.6653543,12.5669291 C24.7755906,12.5669291 24.9133858,12.6220472 24.996063,12.6771654 C25.7125984,13.0629921 25.6850394,14.3307087 24.996063,15.4606299 Z" id="Shape" fill="#FFD05B"></path>
                    <path d="M21.2204724,3.5 C21.7440945,3.44488189 22.5984252,3.91338583 22.5984252,3.91338583 C20.2559055,1.24015748 16.4251969,2.9488189 16.4251969,2.9488189 C17.7204724,1.84645669 18.8779528,1.95669291 18.8779528,1.95669291 C13.3937008,1.12992126 12.4566929,4.40944882 12.4566929,4.40944882 C12.2086614,4.02362205 12.2086614,3.47244094 12.2362205,3.19685039 C11.8503937,3.85826772 12.2637795,5.18110236 12.2637795,5.18110236 C11.8779528,4.21653543 10.5275591,4.38188976 10.5275591,4.38188976 C11.6850394,4.57480315 11.8779528,5.29133858 11.8779528,5.29133858 C8.98425197,6.36614173 9.48031496,9.37007874 9.48031496,9.37007874 L10.1692913,8.54330709 C9.31496063,11.8228346 11.492126,14.3582677 11.492126,14.3582677 C10.8582677,10.8582677 13.4488189,10.4724409 13.007874,7.11023622 C13.007874,7.11023622 14.6338583,10.7204724 19.2913386,8.18503937 L18.9330709,8.87401575 C25.519685,7.38582677 23.2047244,15.2952756 23.2047244,15.2952756 C25.5472441,12.3188976 25.1889764,9.25984252 25.1889764,9.25984252 L25.4645669,10.3622047 C26.2086614,5.4015748 21.2204724,3.5 21.2204724,3.5 Z" id="Shape" fill="#324A5E"></path>
                </g>
            </g>
        </g>
    </g>
</svg>