<?xml version="1.0" encoding="UTF-8"?>
<svg width="37px" height="33px" viewBox="0 0 37 33" version="1.1" xmlns="http://www.w3.org/2000/svg" xmlns:xlink="http://www.w3.org/1999/xlink">
    <!-- Generator: Sketch 43.1 (39012) - http://www.bohemiancoding.com/sketch -->
    <title>messages</title>
    <desc>Created with Sketch.</desc>
    <defs>
        <filter x="-24.1%" y="-20.0%" width="148.3%" height="156.0%" filterUnits="objectBoundingBox" id="filter-1">
            <feOffset dx="0" dy="2" in="SourceAlpha" result="shadowOffsetOuter1"></feOffset>
            <feGaussianBlur stdDeviation="2" in="shadowOffsetOuter1" result="shadowBlurOuter1"></feGaussianBlur>
            <feColorMatrix values="0 0 0 0 0   0 0 0 0 0   0 0 0 0 0  0 0 0 0.15 0" type="matrix" in="shadowBlurOuter1" result="shadowMatrixOuter1"></feColorMatrix>
            <feMerge>
                <feMergeNode in="shadowMatrixOuter1"></feMergeNode>
                <feMergeNode in="SourceGraphic"></feMergeNode>
            </feMerge>
        </filter>
    </defs>
    <g id="main" stroke="none" stroke-width="1" fill="none" fill-rule="evenodd">
        <g id="challenge-page-list" transform="translate(-1148.000000, -31.000000)" fill-rule="nonzero" fill="#FFFFFF">
            <g id="nav-green-big">
                <g id="messages" filter="url(#filter-1)" transform="translate(1166.071429, 45.500000) scale(-1, 1) translate(-1166.071429, -45.500000) translate(1151.571429, 33.000000)">
                    <path d="M28.5714286,2.93392857 L28.5714286,15.5178571 C28.5714286,17.1386905 27.2577381,18.452381 25.6375,18.452381 L13.0952381,18.452381 L7.14285714,25 L7.14285714,18.452381 L2.93392857,18.452381 C1.31369048,18.452381 0,17.1386905 0,15.5184524 L0,2.93452381 C0,1.31369048 1.31369048,0 2.93392857,0 L25.6369048,0 C27.2577381,0 28.5714286,1.31369048 28.5714286,2.93392857 Z M22.6190476,6.55654762 C22.9482143,6.55654762 23.2142857,6.28988095 23.2142857,5.96130952 C23.2142857,5.6327381 22.9482143,5.36607143 22.6190476,5.36607143 L14.2857143,5.36607143 C13.9565476,5.36607143 13.6904762,5.6327381 13.6904762,5.96130952 C13.6904762,6.28988095 13.9565476,6.55654762 14.2857143,6.55654762 L22.6190476,6.55654762 Z M22.6190476,10.1279762 C22.9482143,10.1279762 23.2142857,9.86130952 23.2142857,9.5327381 C23.2142857,9.20416667 22.9482143,8.9375 22.6190476,8.9375 L6.54761905,8.9375 C6.21845238,8.9375 5.95238095,9.20416667 5.95238095,9.5327381 C5.95238095,9.86130952 6.21845238,10.1279762 6.54761905,10.1279762 L22.6190476,10.1279762 Z M22.6190476,13.6994048 C22.9482143,13.6994048 23.2142857,13.4327381 23.2142857,13.1041667 C23.2142857,12.7755952 22.9482143,12.5089286 22.6190476,12.5089286 L6.54761905,12.5089286 C6.21845238,12.5089286 5.95238095,12.7755952 5.95238095,13.1041667 C5.95238095,13.4327381 6.21845238,13.6994048 6.54761905,13.6994048 L22.6190476,13.6994048 Z" id="Combined-Shape"></path>
                </g>
            </g>
        </g>
    </g>
</svg>